<svg xmlns="http://www.w3.org/2000/svg" viewBox="0 0 560 760" width="560" height="760" preserveAspectRatio="xMidYMid slice">
  <rect width="560" height="760" fill="#141412"></rect>

  
  <g stroke="#c8502a" stroke-width="0.3" opacity="0.13">
    <g id="vlines">
      <line x1="40" y1="0" x2="40" y2="760"></line><line x1="80" y1="0" x2="80" y2="760"></line>
      <line x1="120" y1="0" x2="120" y2="760"></line><line x1="160" y1="0" x2="160" y2="760"></line>
      <line x1="200" y1="0" x2="200" y2="760"></line><line x1="240" y1="0" x2="240" y2="760"></line>
      <line x1="280" y1="0" x2="280" y2="760"></line><line x1="320" y1="0" x2="320" y2="760"></line>
      <line x1="360" y1="0" x2="360" y2="760"></line><line x1="400" y1="0" x2="400" y2="760"></line>
      <line x1="440" y1="0" x2="440" y2="760"></line><line x1="480" y1="0" x2="480" y2="760"></line>
      <line x1="520" y1="0" x2="520" y2="760"></line>
    </g>
    <g id="hlines">
      <line x1="0" y1="40" x2="560" y2="40"></line><line x1="0" y1="80" x2="560" y2="80"></line>
      <line x1="0" y1="120" x2="560" y2="120"></line><line x1="0" y1="160" x2="560" y2="160"></line>
      <line x1="0" y1="200" x2="560" y2="200"></line><line x1="0" y1="240" x2="560" y2="240"></line>
      <line x1="0" y1="280" x2="560" y2="280"></line><line x1="0" y1="320" x2="560" y2="320"></line>
      <line x1="0" y1="360" x2="560" y2="360"></line><line x1="0" y1="400" x2="560" y2="400"></line>
      <line x1="0" y1="440" x2="560" y2="440"></line><line x1="0" y1="480" x2="560" y2="480"></line>
      <line x1="0" y1="520" x2="560" y2="520"></line><line x1="0" y1="560" x2="560" y2="560"></line>
      <line x1="0" y1="600" x2="560" y2="600"></line><line x1="0" y1="640" x2="560" y2="640"></line>
      <line x1="0" y1="680" x2="560" y2="680"></line><line x1="0" y1="720" x2="560" y2="720"></line>
    </g>
  </g>
  
  <g stroke="#c8502a" stroke-width="0.55" opacity="0.30">
    <line x1="200" y1="0" x2="200" y2="760"></line><line x1="400" y1="0" x2="400" y2="760"></line>
    <line x1="0" y1="200" x2="560" y2="200"></line><line x1="0" y1="400" x2="560" y2="400"></line>
    <line x1="0" y1="600" x2="560" y2="600"></line>
  </g>

  
  <g font-family="Syne, sans-serif">
    <line x1="372" y1="42" x2="528" y2="42" stroke="#c8502a" stroke-width="0.6"></line>
    <line x1="372" y1="100" x2="528" y2="100" stroke="#c8502a" stroke-width="0.4" opacity="0.5"></line>
    <text x="372" y="60" font-size="7" letter-spacing="2.4" fill="#7a7670">SHEET 04 / 12 — REV C</text>
    <text x="372" y="78" font-size="11" letter-spacing="2" fill="#f2efe8" font-weight="700">A·S — N° 1</text>
    <text x="372" y="92" font-size="6.5" letter-spacing="1.8" fill="#7a7670">CLERKENWELL · ENU</text>
    <text x="372" y="116" font-size="6" letter-spacing="1.6" fill="#7a7670">DRAWN  J.A.</text>
    <text x="450" y="116" font-size="6" letter-spacing="1.6" fill="#7a7670">CHK   M.R.</text>
    <text x="372" y="128" font-size="6" letter-spacing="1.6" fill="#7a7670">SCALE  1 : 50</text>
    <text x="450" y="128" font-size="6" letter-spacing="1.6" fill="#7a7670">DATE  04 · 26</text>
  </g>

  
  <g transform="translate(360 320)">
    <circle r="146" fill="none" stroke="#c8502a" stroke-width="0.7" opacity="0.50"></circle>
    <circle r="118" fill="none" stroke="#c8502a" stroke-width="0.6" opacity="0.42"></circle>
    <circle r="92" fill="none" stroke="#c8502a" stroke-width="0.55" opacity="0.36"></circle>
    <circle r="68" fill="none" stroke="#c8502a" stroke-width="0.5" opacity="0.30"></circle>
    <circle r="44" fill="none" stroke="#c8502a" stroke-width="0.45" opacity="0.24"></circle>
    <circle r="22" fill="#c8502a" opacity="0.65"></circle>
    
    <line x1="0" y1="-150" x2="0" y2="-22" stroke="#c8502a" stroke-width="0.4" opacity="0.55"></line>
    <line x1="0" y1="22" x2="0" y2="150" stroke="#c8502a" stroke-width="0.4" opacity="0.55"></line>
    <line x1="-150" y1="0" x2="-22" y2="0" stroke="#c8502a" stroke-width="0.4" opacity="0.55"></line>
    <line x1="22" y1="0" x2="150" y2="0" stroke="#c8502a" stroke-width="0.4" opacity="0.55"></line>
    
    <g stroke="#c8502a" stroke-width="0.4" opacity="0.55">
      <line x1="0" y1="-150" x2="0" y2="-156" transform="rotate(30)"></line>
      <line x1="0" y1="-150" x2="0" y2="-156" transform="rotate(60)"></line>
      <line x1="0" y1="-150" x2="0" y2="-156" transform="rotate(120)"></line>
      <line x1="0" y1="-150" x2="0" y2="-156" transform="rotate(150)"></line>
      <line x1="0" y1="-150" x2="0" y2="-156" transform="rotate(210)"></line>
      <line x1="0" y1="-150" x2="0" y2="-156" transform="rotate(240)"></line>
      <line x1="0" y1="-150" x2="0" y2="-156" transform="rotate(300)"></line>
      <line x1="0" y1="-150" x2="0" y2="-156" transform="rotate(330)"></line>
    </g>
    
    <line x1="22" y1="-4" x2="146" y2="-4" stroke="#f2efe8" stroke-width="0.4" opacity="0.5"></line>
    <line x1="22" y1="-9" x2="22" y2="1" stroke="#f2efe8" stroke-width="0.4" opacity="0.5"></line>
    <line x1="146" y1="-9" x2="146" y2="1" stroke="#f2efe8" stroke-width="0.4" opacity="0.5"></line>
    <text x="64" y="-10" font-family="DM Sans, sans-serif" font-size="6.5" fill="#7a7670" letter-spacing="1.6">R = 5400 mm</text>
    <text x="-100" y="172" font-family="Syne, sans-serif" font-size="7" fill="#c8502a" letter-spacing="2.4">ACTIVATION FOOTPRINT</text>
    
    <g transform="translate(0 -190)">
      <circle r="9" fill="none" stroke="#f2efe8" stroke-width="0.4" opacity="0.6"></circle>
      <line x1="0" y1="-9" x2="0" y2="9" stroke="#f2efe8" stroke-width="0.4" opacity="0.6"></line>
      <text x="-2.5" y="-12" font-family="Syne, sans-serif" font-size="6.5" fill="#f2efe8" opacity="0.7" letter-spacing="1">N</text>
    </g>
  </g>

  
  <line x1="36" y1="48" x2="36" y2="712" stroke="#c8502a" stroke-width="1" opacity="0.7"></line>
  <circle cx="36" cy="48" r="2.2" fill="#c8502a"></circle>
  <circle cx="36" cy="712" r="2.2" fill="#c8502a"></circle>
  <text x="46" y="60" font-family="Syne, sans-serif" font-size="6.5" fill="#7a7670" letter-spacing="2">DATUM N–S</text>
  <text x="46" y="710" font-family="Syne, sans-serif" font-size="6.5" fill="#7a7670" letter-spacing="2">END OF DATUM</text>

  
  <g transform="translate(58 130)" font-family="Syne, sans-serif">
    <rect x="0" y="0" width="200" height="86" fill="none" stroke="#f2efe8" stroke-width="0.5" opacity="0.55"></rect>
    <line x1="0" y1="22" x2="200" y2="22" stroke="#f2efe8" stroke-width="0.4" opacity="0.4"></line>
    <text x="8" y="15" font-size="6.5" fill="#7a7670" letter-spacing="2">PANEL TYPE A — DIRECTIONAL</text>
    
    <line x1="14" y1="40" x2="62" y2="40" stroke="#f2efe8" stroke-width="1.3" opacity="0.9"></line>
    <polyline points="56,34 64,40 56,46" fill="none" stroke="#f2efe8" stroke-width="1.3" opacity="0.9"></polyline>
    <text x="78" y="43" font-size="8.5" fill="#f2efe8" letter-spacing="2" font-weight="700">EAST WING</text>
    
    <line x1="14" y1="64" x2="14" y2="78" stroke="#c8502a" stroke-width="1.3"></line>
    <polyline points="8,72 14,80 20,72" fill="none" stroke="#c8502a" stroke-width="1.3"></polyline>
    <text x="32" y="73" font-size="8.5" fill="#c8502a" letter-spacing="2" font-weight="700">ATRIUM L1</text>
  </g>

  
  <g transform="translate(58 240)" font-family="Syne, sans-serif">
    <rect x="0" y="0" width="200" height="44" fill="none" stroke="#f2efe8" stroke-width="0.5" opacity="0.55"></rect>
    <text x="8" y="14" font-size="6" fill="#7a7670" letter-spacing="2">PANEL TYPE B — ROOM I.D.</text>
    <line x1="8" y1="22" x2="32" y2="22" stroke="#c8502a" stroke-width="1"></line>
    <text x="40" y="34" font-size="11" fill="#f2efe8" letter-spacing="3" font-weight="700">GALLERY 04</text>
  </g>

  
  <g transform="translate(58 410)">
    <text x="0" y="-6" font-family="Syne, sans-serif" font-size="6.5" fill="#7a7670" letter-spacing="2">PARTIAL PLAN — L1</text>
    <rect x="0" y="0" width="200" height="100" fill="none" stroke="#f2efe8" stroke-width="0.55" opacity="0.55"></rect>
    
    <line x1="60" y1="0" x2="60" y2="60" stroke="#f2efe8" stroke-width="0.5" opacity="0.5"></line>
    <line x1="60" y1="60" x2="200" y2="60" stroke="#f2efe8" stroke-width="0.5" opacity="0.5"></line>
    <line x1="120" y1="60" x2="120" y2="100" stroke="#f2efe8" stroke-width="0.5" opacity="0.5"></line>
    
    <path d="M60 30 A 12 12 0 0 1 72 42" fill="none" stroke="#f2efe8" stroke-width="0.4" opacity="0.55"></path>
    <path d="M120 60 A 12 12 0 0 1 132 72" fill="none" stroke="#f2efe8" stroke-width="0.4" opacity="0.55"></path>
    
    <text x="20" y="36" font-family="Syne, sans-serif" font-size="6" fill="#c8502a" letter-spacing="1.6">ENTRY</text>
    <text x="120" y="32" font-family="Syne, sans-serif" font-size="6" fill="#c8502a" letter-spacing="1.6">G·04</text>
    <text x="155" y="80" font-family="Syne, sans-serif" font-size="6" fill="#c8502a" letter-spacing="1.6">G·05</text>
    <text x="78" y="80" font-family="Syne, sans-serif" font-size="6" fill="#c8502a" letter-spacing="1.6">CIRC.</text>
    
    <circle cx="155" cy="35" r="9" fill="none" stroke="#c8502a" stroke-width="0.5" opacity="0.7"></circle>
    <circle cx="155" cy="35" r="2.5" fill="#c8502a"></circle>
    <line x1="155" y1="35" x2="190" y2="14" stroke="#c8502a" stroke-width="0.4" opacity="0.6"></line>
    <text x="184" y="10" font-family="Syne, sans-serif" font-size="5.5" fill="#c8502a" letter-spacing="1.4">A</text>
  </g>

  
  <g transform="translate(38 580) rotate(-12)">
    <rect x="0" y="0" width="300" height="14" fill="#c8502a" opacity="0.85"></rect>
    <rect x="310" y="0" width="36" height="14" fill="#c8502a" opacity="0.55"></rect>
    <rect x="352" y="0" width="14" height="14" fill="#c8502a" opacity="0.30"></rect>
    <text x="6" y="34" font-family="Syne, sans-serif" font-size="7" fill="#c8502a" letter-spacing="3.6" font-weight="700">FLOOR GRAPHIC · VINYL · 12 M</text>
    <line x1="0" y1="-6" x2="0" y2="-2" stroke="#c8502a" stroke-width="0.5" opacity="0.7"></line>
    <line x1="366" y1="-6" x2="366" y2="-2" stroke="#c8502a" stroke-width="0.5" opacity="0.7"></line>
    <line x1="0" y1="-4" x2="366" y2="-4" stroke="#c8502a" stroke-width="0.4" opacity="0.7"></line>
  </g>

  
  <g transform="translate(330 540)" font-family="Syne, sans-serif">
    <text x="0" y="0" font-size="6.5" fill="#7a7670" letter-spacing="2">SIGNAGE TYPE SPEC</text>
    <line x1="0" y1="6" x2="190" y2="6" stroke="#c8502a" stroke-width="0.4" opacity="0.55"></line>
    <text x="0" y="24" font-family="Playfair Display, serif" font-style="italic" font-size="22" fill="#f2efe8" font-weight="700">Aa</text>
    <text x="38" y="14" font-size="6" fill="#7a7670" letter-spacing="1.6">PRIMARY · PLAYFAIR</text>
    <text x="38" y="24" font-size="6" fill="#7a7670" letter-spacing="1.6">52 / 64 · WEIGHT 900</text>
    <text x="0" y="48" font-family="Syne, sans-serif" font-size="14" fill="#c8502a" letter-spacing="3" font-weight="700">EAST</text>
    <text x="38" y="40" font-size="6" fill="#7a7670" letter-spacing="1.6">LABEL · SYNE</text>
    <text x="38" y="50" font-size="6" fill="#7a7670" letter-spacing="1.6">14 / 18 · TR. 240</text>
  </g>

  
  <g transform="translate(420 638)" font-family="DM Sans, sans-serif">
    <circle cx="0" cy="0" r="14" fill="none" stroke="#c8502a" stroke-width="0.8"></circle>
    <line x1="0" y1="0" x2="0" y2="-14" stroke="#c8502a" stroke-width="0.8"></line>
    <text x="-4.5" y="3.5" font-family="Playfair Display, serif" font-size="11" fill="#c8502a" font-weight="700">A</text>
    <text x="22" y="3" font-family="Syne, sans-serif" font-size="6.5" fill="#7a7670" letter-spacing="2">SECTION A–A&#39;</text>
    <line x1="22" y1="-4" x2="100" y2="-4" stroke="#7a7670" stroke-width="0.4" opacity="0.6"></line>
  </g>

  
  <g transform="translate(58 690)">
    <rect x="0" y="0" width="20" height="3" fill="#f2efe8" opacity="0.65"></rect>
    <rect x="20" y="0" width="20" height="3" fill="none" stroke="#f2efe8" stroke-width="0.4" opacity="0.65"></rect>
    <rect x="40" y="0" width="20" height="3" fill="#f2efe8" opacity="0.65"></rect>
    <rect x="60" y="0" width="20" height="3" fill="none" stroke="#f2efe8" stroke-width="0.4" opacity="0.65"></rect>
    <text x="0" y="16" font-family="Syne, sans-serif" font-size="6" fill="#7a7670" letter-spacing="2">0</text>
    <text x="36" y="16" font-family="Syne, sans-serif" font-size="6" fill="#7a7670" letter-spacing="2">5 M</text>
    <text x="76" y="16" font-family="Syne, sans-serif" font-size="6" fill="#7a7670" letter-spacing="2">10 M</text>
  </g>

  
  <g transform="translate(330 670)" font-family="Syne, sans-serif">
    <rect x="0" y="0" width="190" height="34" fill="none" stroke="#7a7670" stroke-width="0.4" opacity="0.5"></rect>
    <line x1="0" y1="12" x2="190" y2="12" stroke="#7a7670" stroke-width="0.4" opacity="0.5"></line>
    <text x="6" y="9" font-size="5.5" fill="#7a7670" letter-spacing="1.6">REV  · DATE  · INITIALS  · NOTE</text>
    <text x="6" y="22" font-size="6" fill="#f2efe8" letter-spacing="1.4" opacity="0.85">A · 02·26 · MR · ISSUED</text>
    <text x="6" y="31" font-size="6" fill="#c8502a" letter-spacing="1.4">C · 04·26 · JA · FOR REVIEW</text>
  </g>

  
  <text x="-30" y="710" font-family="Playfair Display, serif" font-weight="900" font-size="220" fill="#f2efe8" opacity="0.025" letter-spacing="-6">A·S</text>
</svg>